<?xml version="1.0" encoding="utf-8"?>
<svg viewBox="0 0 500 500" xmlns="http://www.w3.org/2000/svg">
  <path style="fill: rgba(0, 99, 138, 0.94);" d="M 455.081 25.444 L 108.756 25.444 C 98.131 25.444 89.516 34.255 89.516 45.122 C 89.516 55.99 98.131 64.801 108.757 64.801 L 123.187 64.801 L 328.108 344.249 C 323.435 347.84 320.399 353.538 320.399 359.975 C 320.399 370.843 329.013 379.653 339.639 379.653 L 416.6 379.653 C 427.224 379.653 435.841 370.843 435.841 359.975 L 435.841 222.226 L 455.081 222.226 C 465.705 222.226 474.322 213.416 474.322 202.548 L 474.322 45.122 C 474.321 34.255 465.705 25.444 455.081 25.444 Z"/>
  <path style="fill: rgb(9, 68, 93);" d="M 345.723 105.168 L 116.724 27.095 C 116.422 26.993 116.119 26.898 115.815 26.81 C 113.63 25.929 111.247 25.444 108.756 25.444 C 98.131 25.444 89.516 34.255 89.516 45.122 L 89.516 359.975 C 89.516 368.445 94.817 375.965 102.673 378.643 L 333.556 457.356 C 335.543 458.034 337.596 458.367 339.638 458.367 C 343.626 458.367 347.572 457.098 350.888 454.653 C 355.908 450.955 358.88 445.013 358.88 438.689 L 358.88 123.836 C 358.88 115.366 353.578 107.846 345.723 105.168 Z"/>
  <path style="fill: rgb(250, 244, 244);" d="M 281.528 180.975 C 277.213 177.233 271.504 175.629 265.929 176.579 L 188.968 189.697 C 179.69 191.278 172.89 199.488 172.89 209.108 L 172.89 269.286 C 165.423 271.99 160.064 279.257 160.064 287.821 C 160.064 298.689 168.678 307.499 179.304 307.499 L 192.131 307.499 C 202.755 307.499 211.371 298.689 211.371 287.821 L 211.371 225.778 L 249.851 219.218 L 249.851 256.167 C 242.384 258.871 237.025 266.138 237.025 274.701 C 237.025 285.569 245.639 294.38 256.265 294.38 L 269.092 294.38 C 279.716 294.38 288.332 285.569 288.332 274.701 L 288.332 195.988 C 288.332 190.205 285.844 184.712 281.528 180.975 Z"/>
  <path style="fill: rgba(143, 136, 136, 0.37);" d="M 249.851 256.168 C 242.384 258.872 237.025 266.138 237.025 274.702 C 237.025 285.57 245.639 294.381 256.265 294.381 L 269.092 294.381 C 279.716 294.381 288.332 285.57 288.332 274.702 L 288.332 195.989 C 288.332 190.205 285.844 184.712 281.528 180.975 C 277.213 177.233 271.504 175.629 265.929 176.579 L 224.198 183.691 L 224.198 223.591 L 249.851 219.219 L 249.851 256.168 Z"/>
  <g transform="matrix(0.826729, 0, 0, 0.84555, 70.275963, 25.444056)" style=""/>
  <g transform="matrix(0.826729, 0, 0, 0.84555, 70.275963, 25.444056)" style=""/>
  <g transform="matrix(0.826729, 0, 0, 0.84555, 70.275963, 25.444056)" style=""/>
  <g transform="matrix(0.826729, 0, 0, 0.84555, 70.275963, 25.444056)" style=""/>
  <g transform="matrix(0.826729, 0, 0, 0.84555, 70.275963, 25.444056)" style=""/>
  <g transform="matrix(0.826729, 0, 0, 0.84555, 70.275963, 25.444056)" style=""/>
  <g transform="matrix(0.826729, 0, 0, 0.84555, 70.275963, 25.444056)" style=""/>
  <g transform="matrix(0.826729, 0, 0, 0.84555, 70.275963, 25.444056)" style=""/>
  <g transform="matrix(0.826729, 0, 0, 0.84555, 70.275963, 25.444056)" style=""/>
  <g transform="matrix(0.826729, 0, 0, 0.84555, 70.275963, 25.444056)" style=""/>
  <g transform="matrix(0.826729, 0, 0, 0.84555, 70.275963, 25.444056)" style=""/>
  <g transform="matrix(0.826729, 0, 0, 0.84555, 70.275963, 25.444056)" style=""/>
  <g transform="matrix(0.826729, 0, 0, 0.84555, 70.275963, 25.444056)" style=""/>
  <g transform="matrix(0.826729, 0, 0, 0.84555, 70.275963, 25.444056)" style=""/>
  <g transform="matrix(0.826729, 0, 0, 0.84555, 70.275963, 25.444056)" style=""/>
</svg>