<?xml version="1.0" encoding="utf-8"?>
<svg viewBox="0 0 500 500" xmlns="http://www.w3.org/2000/svg">
  <defs>
    <linearGradient gradientUnits="userSpaceOnUse" x1="240.66" y1="27.313" x2="240.66" y2="439.686" id="gradient-0" gradientTransform="matrix(1, 0, 0, 0.420177, 0, 254.940077)">
      <stop offset="0" style="stop-color: rgba(0, 99, 138, 1)"/>
      <stop offset="1" style="stop-color: rgba(0, 26, 36, 1)"/>
    </linearGradient>
  </defs>
  <rect width="416.733" height="412.373" rx="206.186" x="32.294" y="27.313" style="fill-rule: nonzero; paint-order: fill; fill: url(#gradient-0);" ry="206.186"/>
  <path fill="#fff" d="M 191.153 318.948 L 191.153 190.082 C 191.153 185.25 193.866 182.296 199.292 181.223 L 311.615 158.671 C 317.583 157.596 320.839 160.281 321.382 166.725 L 321.382 264.986 C 321.382 273.04 309.173 278.409 284.755 281.094 C 238.361 288.343 245.686 365.663 309.173 344.722 C 333.591 335.862 337.661 312.506 337.661 289.149 L 337.661 100.681 C 337.661 100.681 337.661 84.572 323.824 88.599 L 185.455 116.789 C 185.455 116.789 174.875 118.4 174.875 131.286 L 174.875 294.786 C 174.875 302.84 162.666 308.209 138.248 310.894 C 91.853 318.143 99.179 395.463 162.666 374.522 C 187.083 365.663 191.153 342.305 191.153 318.948" style=""/>
</svg>