<?xml version="1.0" encoding="utf-8"?>
<svg viewBox="0 0 500 500" xmlns="http://www.w3.org/2000/svg">
  <circle style="fill: rgb(0, 99, 138);" cx="256" cy="256" r="256" transform="matrix(0.862576, 0, 0, 0.841901, 45.369873, 8.563454)"/>
  <path style="fill: rgb(12, 78, 106);" d="M 486.899 230.708 C 483.375 344.832 388.96 436.654 271.894 439.549 L 170.49 340.585 L 212.784 293.542 L 203.972 201.886 L 275.777 196.765 L 261.449 182.781 L 261.569 165.435 L 283.284 139.392 L 346.128 201.594 L 354.192 198.329 L 333.503 177.475 L 370.988 117.566 L 486.899 230.708 Z"/>
  <path style="fill: rgb(248, 248, 248);" d="M 203.744 215.101 C 203.395 210.806 203.336 206.394 203.972 201.885 C 229.779 197.911 255.417 195.588 281.183 192.187 C 289.567 191.109 298.019 189.719 306.293 189.437 C 307.637 201.652 307.667 214.285 308.612 226.635 C 309.528 243.486 311.181 260.141 311.619 277.129 C 311.998 286.272 313.919 295.33 311.072 305.047 C 309.428 310.926 306.412 317.116 301.305 321.412 C 292.115 328.875 280.427 333.209 270.33 331.984 C 263.312 331.557 257.168 327.815 254.65 321.606 C 250.747 315.047 252.649 304.902 258.692 297.575 C 269.405 283.524 290.482 279.947 299.981 289.946 C 298.995 269.977 298.407 249.901 297.491 229.901 C 270.47 233.895 243.409 238.084 216.378 242.136 C 216.169 246.412 216.378 250.59 216.757 254.71 C 217.513 266.906 218.131 279.141 218.967 291.307 C 219.216 299.353 220.589 307.351 218.051 315.864 C 216.607 321.762 212.724 327.292 208.303 331.946 C 203.365 336.815 196.974 338.914 190.99 340.741 C 183.821 343.015 176.543 342.811 170.46 340.566 C 164.546 338.059 160.185 332.548 159.985 325.513 C 159.249 317.176 164.237 306.992 172.421 301.676 C 182.935 293.775 197.909 291.618 205.496 299.344 C 206.013 299.052 206.551 298.76 207.089 298.508 C 205.974 270.706 204.978 242.855 203.744 215.101 Z"/>
  <path style="fill: rgb(206, 91, 89);" d="M 333.513 124.845 C 333.513 114.349 324.792 105.837 314.029 105.837 C 303.265 105.837 294.544 114.349 294.544 124.845 C 294.544 150.178 324.094 161.509 333.512 177.475 C 342.921 161.509 372.471 150.178 372.471 124.845 C 372.471 114.349 363.75 105.837 352.987 105.837 C 342.235 105.837 333.513 114.349 333.513 124.845 Z"/>
  <g transform="matrix(0.862576, 0, 0, 0.841901, 45.369873, 8.563454)" style="">
    <path style="fill: rgb(201, 52, 50);" d="M331.141,196.349c1.085,1.397,2.066,2.828,2.909,4.282c10.908-18.964,45.166-32.423,45.166-62.514 c0-12.466-10.111-22.577-22.589-22.577c-0.981,0-1.951,0.058-2.909,0.185c11.104,1.42,19.68,10.908,19.68,22.392 C373.398,165.888,344.207,179.497,331.141,196.349z"/>
    <path style="fill: rgb(201, 52, 50);" d="M334.073,137.044c-1.42-15.905-14.174-21.504-22.612-21.504c-0.981,0-1.951,0.058-2.909,0.185 c11.104,1.42,22.612,20.915,22.612,32.4C331.164,144.096,332.215,140.31,334.073,137.044z"/>
  </g>
  <path style="fill: rgb(194, 86, 84);" d="M 342.425 210.525 C 342.425 203.839 336.859 198.407 329.999 198.407 C 323.149 198.407 317.584 203.839 317.584 210.525 C 317.584 226.676 336.421 233.896 342.425 244.08 C 348.428 233.896 367.256 226.675 367.256 210.525 C 367.256 203.839 361.7 198.407 354.84 198.407 C 347.98 198.407 342.425 203.839 342.425 210.525 Z"/>
  <path style="fill: rgb(201, 52, 50);" d="M 340.821 241.776 C 341.419 242.534 341.956 243.302 342.424 244.08 C 348.427 233.896 367.255 226.675 367.255 210.525 C 367.255 203.839 361.699 198.407 354.84 198.407 C 354.302 198.407 353.764 198.446 353.246 198.504 C 359.35 199.272 364.059 204.364 364.059 210.525 C 364.059 225.432 348.01 232.739 340.821 241.776 Z"/>
  <path style="fill: rgb(213, 93, 91);" d="M 261.45 148.03 C 261.45 141.014 255.626 135.33 248.437 135.33 C 241.259 135.33 235.435 141.014 235.435 148.03 C 235.435 164.939 255.159 172.509 261.45 183.179 C 267.743 172.509 287.466 164.939 287.466 148.03 C 287.466 141.014 281.641 135.33 274.463 135.33 C 267.274 135.33 261.45 141.015 261.45 148.03 Z"/>
  <path style="fill: rgb(201, 52, 50);" d="M 259.778 180.77 C 260.405 181.557 260.963 182.353 261.45 183.18 C 267.743 172.51 287.466 164.94 287.466 148.031 C 287.466 141.015 281.641 135.33 274.463 135.33 C 273.895 135.33 273.328 135.369 272.78 135.437 C 279.182 136.234 284.12 141.569 284.12 148.031 C 284.12 163.647 267.305 171.295 259.778 180.77 Z"/>
  <path style="fill: rgb(234, 234, 237);" d="M 306.85 195.375 C 307.667 205.714 307.816 216.267 308.612 226.636 C 308.652 227.462 308.702 228.298 308.752 229.124 C 308.493 225.402 308.254 221.671 308.055 217.939 C 307.478 210.466 307.239 202.896 306.85 195.375 Z M 310.405 253.467 C 310.913 260.891 311.361 268.325 311.58 275.837 C 311.38 273.359 311.161 270.9 311.062 268.433 C 310.933 263.417 310.694 258.432 310.405 253.467 Z M 312.027 283.212 C 312.615 290.325 313.292 297.487 311.072 305.048 C 309.428 310.927 306.412 317.117 301.305 321.413 C 292.115 328.876 280.427 333.21 270.33 331.985 C 263.312 331.557 257.168 327.816 254.65 321.607 C 252.758 318.43 252.23 314.397 252.877 310.247 C 253.195 311.19 253.594 312.074 254.092 312.91 C 256.61 319.11 262.754 322.851 269.772 323.288 C 279.868 324.512 291.557 320.169 300.747 312.716 C 305.854 308.42 308.871 302.221 310.514 296.342 C 311.838 291.852 312.127 287.497 312.027 283.212 Z M 297.313 229.931 C 270.351 233.915 243.35 238.094 216.378 242.136 C 216.269 244.215 216.269 246.266 216.338 248.306 L 216.199 246.003 C 215.82 241.892 215.611 237.713 215.82 233.428 C 242.851 229.385 269.912 225.198 296.933 221.204 C 297.063 224.11 297.193 227.015 297.313 229.931 Z M 216.657 253.564 L 216.756 254.71 C 217.313 263.661 217.791 272.639 218.339 281.589 C 217.712 272.27 217.204 262.912 216.657 253.564 Z M 218.419 282.853 C 218.598 285.681 218.778 288.498 218.967 291.307 C 219.216 299.353 220.589 307.351 218.051 315.864 C 216.607 321.762 212.724 327.292 208.303 331.946 C 203.365 336.815 196.974 338.914 190.99 340.741 C 183.821 343.015 176.543 342.811 170.46 340.566 C 164.546 338.059 160.185 332.548 159.985 325.513 C 159.866 324.085 159.906 322.598 160.105 321.092 C 161.559 326.057 165.252 329.896 169.912 331.869 C 175.985 334.113 183.263 334.308 190.432 332.044 C 196.415 330.217 202.807 328.118 207.745 323.24 C 212.166 318.585 216.049 313.057 217.493 307.157 C 220.012 298.732 218.688 290.821 218.419 282.853 Z"/>
  <g transform="matrix(0.862576, 0, 0, 0.841901, 45.369873, 8.563454)" style=""/>
  <g transform="matrix(0.862576, 0, 0, 0.841901, 45.369873, 8.563454)" style=""/>
  <g transform="matrix(0.862576, 0, 0, 0.841901, 45.369873, 8.563454)" style=""/>
  <g transform="matrix(0.862576, 0, 0, 0.841901, 45.369873, 8.563454)" style=""/>
  <g transform="matrix(0.862576, 0, 0, 0.841901, 45.369873, 8.563454)" style=""/>
  <g transform="matrix(0.862576, 0, 0, 0.841901, 45.369873, 8.563454)" style=""/>
  <g transform="matrix(0.862576, 0, 0, 0.841901, 45.369873, 8.563454)" style=""/>
  <g transform="matrix(0.862576, 0, 0, 0.841901, 45.369873, 8.563454)" style=""/>
  <g transform="matrix(0.862576, 0, 0, 0.841901, 45.369873, 8.563454)" style=""/>
  <g transform="matrix(0.862576, 0, 0, 0.841901, 45.369873, 8.563454)" style=""/>
  <g transform="matrix(0.862576, 0, 0, 0.841901, 45.369873, 8.563454)" style=""/>
  <g transform="matrix(0.862576, 0, 0, 0.841901, 45.369873, 8.563454)" style=""/>
  <g transform="matrix(0.862576, 0, 0, 0.841901, 45.369873, 8.563454)" style=""/>
  <g transform="matrix(0.862576, 0, 0, 0.841901, 45.369873, 8.563454)" style=""/>
  <g transform="matrix(0.862576, 0, 0, 0.841901, 45.369873, 8.563454)" style=""/>
</svg>