<?xml version="1.0" encoding="utf-8"?>
<svg viewBox="0 0 500 500" xmlns="http://www.w3.org/2000/svg">
  <path d="M 398.574 147.16 C 380.372 87.063 324.475 43.185 258.515 43.185 C 181.526 43.185 118.237 102.958 112.612 178.535 C 109.074 178.048 105.468 177.776 101.798 177.776 C 58.228 177.776 22.782 213.223 22.782 256.793 C 22.782 300.363 58.228 335.811 101.799 335.811 C 102.08 335.811 379.515 335.681 379.515 335.681 C 430.054 333.071 470.369 291.134 470.369 239.956 C 470.368 195.408 439.821 157.862 398.574 147.16 Z M 320.317 248.851 C 315.912 254.505 309.269 258.719 301.614 260.715 C 298.476 261.533 295.285 261.948 292.129 261.948 C 279.125 261.948 268.576 254.997 265.878 244.65 C 264.157 238.054 265.805 231.091 270.515 225.044 C 274.92 219.39 281.563 215.176 289.218 213.18 C 291.322 212.631 293.45 212.281 295.575 212.098 L 295.575 166.498 L 228.575 190.006 L 228.575 268.579 C 228.575 270.438 228.221 272.21 227.603 273.852 C 226.935 277.573 225.263 281.231 222.635 284.605 C 218.23 290.259 211.587 294.473 203.932 296.469 C 200.794 297.287 197.603 297.702 194.447 297.702 C 181.443 297.702 170.894 290.751 168.196 280.404 C 166.475 273.808 168.123 266.845 172.833 260.798 C 177.238 255.144 183.881 250.93 191.536 248.934 C 193.865 248.327 196.224 247.944 198.575 247.786 L 198.575 148.725 L 325.575 101.913 L 325.575 232.579 C 325.575 232.685 325.561 232.787 325.559 232.892 C 325.967 238.357 324.166 243.91 320.317 248.851 Z" style="fill: rgb(0, 99, 138);"/>
</svg>