<?xml version="1.0" encoding="utf-8"?>
<svg viewBox="0 0 500 500" xmlns="http://www.w3.org/2000/svg">
  <g transform="matrix(0.675048, 0, 0, 0.561002, 62.891365, 89.47747)" style="">
    <polygon style="fill:#8B7E7F;" points="41.441,339.213 41.474,419.694 77.135,419.5 77.135,339.213 &#9;"/>
    <polygon style="fill:#8B7E7F;" points="470.559,339.213 470.618,419.5 434.864,419.5 434.864,339.213 &#9;"/>
  </g>
  <g transform="matrix(0.678699, 0.007024, 0, 0.662397, 63.942139, 51.505337)" style="">
    <path style="fill:#463836;" d="M417.263,310.601l-22.022,68.756l22.022,68.756c15.802,0,28.611-12.81,28.611-28.611v-80.287 C445.875,323.412,433.066,310.601,417.263,310.601z"/>
    <path style="fill:#463836;" d="M66.124,339.213V419.5c0,15.803,12.81,28.611,28.611,28.611l22.022-68.756L94.735,310.6 C78.934,310.601,66.124,323.412,66.124,339.213z"/>
    <path style="fill:#463836;" d="M 431.181 90.675 C 388.688 44.057 334.38 16.688 256 20.404 C 177.62 24.12 127.615 45.367 80.819 90.675 C 34.023 135.994 8.258 196.24 8.258 260.326 C 8.258 267.737 14.463 273.746 22.115 273.746 C 29.769 273.746 35.972 267.737 35.972 260.326 C 35.972 142.646 134.485 47.244 256 47.244 C 377.418 47.244 475.868 142.497 476.025 260.047 C 476.023 260.142 476.011 260.232 476.011 260.327 C 476.011 267.744 482.219 273.755 489.877 273.755 C 497.535 273.755 503.743 267.743 503.743 260.327 C 503.742 196.24 473.674 137.293 431.181 90.675 Z"/>
  </g>
  <g transform="matrix(0.670666, 0, 0, 0.57565, 67.322708, 85.874802)" style="">
    <path style="fill: rgb(0, 99, 138);" d="M373.78,267.118c-24.017,0-43.485,19.469-43.485,43.484v137.511 c0,24.017,19.468,43.484,43.485,43.484c24.016,0,43.485-19.468,43.485-43.484V310.601 C417.263,286.587,397.795,267.118,373.78,267.118z"/>
    <path style="fill: rgb(0, 99, 138);" d="M138.22,267.118c-24.016,0-43.485,19.469-43.485,43.484v137.511 c0,24.017,19.468,43.484,43.485,43.484s43.485-19.468,43.485-43.484V310.601C181.705,286.587,162.237,267.118,138.22,267.118z"/>
  </g>
  <path d="M 349.42 260.924 C 347.277 246.126 334.499 234.718 319.101 234.718 C 302.21 234.718 288.468 248.448 288.47 265.327 L 288.481 346.671 C 288.483 363.549 302.229 377.279 319.121 377.279 C 334.519 377.279 347.294 365.872 349.433 351.072 C 359.283 348.968 366.693 340.207 366.692 329.747 L 366.685 282.253 C 366.684 271.791 359.272 263.03 349.42 260.924 Z M 356.914 329.746 C 356.914 334.644 353.967 338.862 349.754 340.742 L 349.748 297.893 C 349.748 295.196 347.559 293.009 344.857 293.009 C 342.157 293.009 339.97 295.196 339.97 297.893 L 339.977 346.671 C 339.978 358.163 330.621 367.509 319.12 367.509 C 307.621 367.509 298.261 358.162 298.26 346.671 L 298.248 265.327 C 298.247 253.835 307.604 244.489 319.103 244.489 C 330.603 244.489 339.963 253.836 339.965 265.327 L 339.967 278.354 C 339.967 281.052 342.156 283.238 344.855 283.238 C 347.558 283.238 349.746 281.052 349.746 278.354 L 349.744 271.257 C 353.957 273.134 356.907 277.353 356.907 282.252 L 356.914 329.746 Z" style="" transform="matrix(0.999974, -0.007219, 0.007219, 0.999974, -2.200597, 2.372921)"/>
  <path d="M 158.221 230.78 C 142.479 230.78 129.415 242.329 127.224 257.311 C 117.152 259.441 109.575 268.309 109.575 278.898 L 109.575 326.979 C 109.575 337.569 117.152 346.437 127.224 348.567 C 129.416 363.549 142.479 375.097 158.221 375.097 C 175.493 375.097 189.544 361.197 189.544 344.112 L 189.544 261.766 C 189.544 244.68 175.493 230.78 158.221 230.78 Z M 179.546 344.113 C 179.546 355.744 169.978 365.208 158.221 365.208 C 146.462 365.208 136.895 355.744 136.895 344.113 L 136.895 294.735 C 136.895 292.002 134.657 289.789 131.896 289.789 C 129.134 289.789 126.897 292.002 126.897 294.735 L 126.897 338.109 C 122.588 336.207 119.574 331.939 119.574 326.979 L 119.574 278.899 C 119.574 273.939 122.588 269.671 126.897 267.77 L 126.897 274.953 C 126.897 277.686 129.134 279.899 131.896 279.899 C 134.657 279.899 136.895 277.686 136.895 274.953 L 136.895 261.766 C 136.895 250.134 146.462 240.671 158.221 240.671 C 169.978 240.671 179.546 250.135 179.546 261.766 L 179.546 344.113 Z" style=""/>
  <path d="M 360.564 105.172 C 327.568 74.75 283.695 57.996 237.028 57.996 C 190.36 57.996 146.484 74.75 113.481 105.172 C 80.478 135.594 62.302 176.042 62.296 219.066 C 62.296 221.935 64.392 226.887 67.505 226.887 L 72.712 226.005 C 75.826 226.005 77.455 221.935 77.456 219.066 C 77.456 216.787 75.866 214.851 73.653 214.151 C 74.984 175.747 91.837 139.818 121.45 112.52 C 152.323 84.062 193.369 68.388 237.027 68.388 C 280.683 68.388 321.726 84.062 352.592 112.52 C 382.2 139.818 399.046 175.747 400.369 214.151 C 398.156 214.851 396.567 216.787 396.566 219.066 C 396.565 221.935 399.088 224.261 402.202 224.261 L 406.088 224.261 C 409.201 224.261 411.724 221.935 411.724 219.066 C 411.728 176.042 393.56 135.594 360.564 105.172 Z" style="" transform="matrix(0.999985, 0.00555, -0.00555, 0.999985, 0.794144, -1.31312)"/>
  <path d="M 236.144 79.612 C 150.429 79.612 80.693 146.764 80.693 229.307 C 80.693 240.88 82.073 252.405 84.791 263.574 L 84.791 302.231 C 84.791 305.223 87.307 307.647 90.413 307.647 C 93.521 307.647 96.037 305.223 96.037 302.231 L 96.037 262.942 C 96.037 262.518 95.986 262.095 95.884 261.683 C 93.267 251.142 91.939 240.25 91.939 229.308 C 91.939 152.737 156.628 90.441 236.142 90.441 C 315.656 90.441 380.345 152.737 380.345 229.308 C 380.345 240.25 379.018 251.143 376.402 261.683 C 376.3 262.095 376.249 262.518 376.249 262.942 L 376.249 302.231 C 376.249 305.223 378.766 307.647 381.871 307.647 C 384.977 307.647 387.494 305.223 387.494 302.231 L 387.494 263.574 C 390.214 252.404 391.592 240.88 391.592 229.307 C 391.594 146.764 321.857 79.612 236.144 79.612 Z" style=""/>
</svg>