<?xml version="1.0" encoding="utf-8"?>
<svg viewBox="0 0 500 500" xmlns="http://www.w3.org/2000/svg">
  <path style="fill: rgb(230, 86, 58);" d="M 422.492 210.954 C 418.24 201.567 414.117 192.965 410.31 185.002 C 392.113 146.967 378.963 119.488 392.331 90.833 C 405.249 63.119 436.158 50.022 463.67 62.87 C 477.941 69.521 485.869 80.604 489.914 92.095 C 501.323 87.804 514.919 86.76 529.167 93.411 C 556.79 106.292 566.502 138.421 553.606 166.05 C 540.25 194.694 510.752 202.285 469.912 212.792 C 461.363 214.995 452.129 217.371 442.198 220.145 C 434.43 222.328 425.951 218.581 422.492 210.954 Z"/>
  <path style="fill:#E6563A;" d="M 179.848 39.325 C 173.722 26.183 163.364 15.936 150.668 10.59 C 136.969 4.798 122.046 5.021 108.569 11.369 C 94.313 18.052 86.294 29.078 82.283 40.661 C 70.923 36.317 57.335 35.315 43.079 41.886 C 16.239 54.471 5.435 86.325 18.576 114.614 C 31.941 143.237 61.455 150.811 102.33 161.28 C 110.795 163.508 120.039 165.846 130.062 168.631 C 137.764 170.999 146.427 166.672 149.775 159.498 C 154.006 150.031 158.128 141.455 161.915 133.548 C 180.072 95.459 193.213 68.059 179.848 39.325 C 173.722 26.182 193.213 68.059 179.848 39.325 Z"/>
  <path style="fill: rgb(0, 99, 138);" d="M 163.218 375.953 L 163.218 192.184 C 163.218 182.955 170.701 175.478 179.924 175.478 C 189.147 175.478 196.63 182.956 196.63 192.184 L 196.63 375.953 L 163.218 375.953 Z"/>
  <g transform="matrix(1, 0, 0, 1, 14.860456, -92.722221)">
    <path style="fill: rgb(12, 78, 106);" d="M356.305,406.209V222.439c0-9.229-7.483-16.706-16.706-16.706c-9.223,0-16.706,7.478-16.706,16.706 v183.769H356.305z"/>
    <path style="fill: rgb(12, 78, 106);" d="M306.187,439.621c-27.637,0-50.119-14.988-50.119-33.413s22.482-33.413,50.119-33.413 s50.119,14.988,50.119,33.413S333.824,439.621,306.187,439.621z"/>
  </g>
  <g transform="matrix(1, 0, 0, 1, 7.388475, -97.080879)">
    <path style="fill: rgb(0, 99, 138);" d="M139.124,506.446c-27.637,0-50.119-14.988-50.119-33.413c0-18.425,22.482-33.413,50.119-33.413 s50.119,14.988,50.119,33.413C189.243,491.459,166.761,506.446,139.124,506.446z"/>
    <path style="fill: rgb(0, 99, 138);" d="M348.966,175.194c-4.589-3.107-10.425-3.753-15.57-1.682l-77.328,30.929l-89.735,35.896 c-6.348,2.539-10.503,8.687-10.503,15.515v58.082l100.238-40.095l100.238-40.084v-44.728 C356.305,183.48,353.554,178.301,348.966,175.194z"/>
  </g>
  <path style="fill: rgb(12, 78, 106);" d="M 371.166 89.455 L 371.166 134.183 L 270.928 174.267 L 270.928 104.869 L 348.256 73.94 C 353.402 71.868 359.238 72.514 363.826 75.622 C 368.415 78.729 371.166 83.908 371.166 89.455 Z"/>
</svg>